<?xml version="1.0" encoding="UTF-8"?>
<svg id="Layer_1" xmlns="http://www.w3.org/2000/svg" width="645mm" height="1700mm" version="1.1" viewBox="0 0 1828.35 4818.9">
  <!-- Generator: Adobe Illustrator 30.5.1, SVG Export Plug-In . SVG Version: 2.1.4 Build 3)  -->
  <path d="M1771.65,4818.9c31.18,0,56.69-25.51,56.69-56.69V56.69c0-31.18-25.51-56.69-56.69-56.69H56.69C25.51,0,0,25.51,0,56.69v170.08c0,31.18,25.51,56.69,56.69,56.69h1176.38c31.18,0,56.69,25.51,56.69,56.69v170.08c0,31.18-25.51,56.69-56.69,56.69H56.69c-31.18,0-56.69,25.51-56.69,56.69v170.08c0,31.18,25.51,56.69,56.69,56.69h1176.38c31.18,0,56.69,25.51,56.69,56.69v170.08c0,31.18-25.51,56.69-56.69,56.69H56.69c-31.18,0-56.69,25.51-56.69,56.69v170.08c0,31.18,25.51,56.69,56.69,56.69h1176.38c31.18,0,56.69,25.51,56.69,56.69v170.08c0,31.18-25.51,56.69-56.69,56.69H56.69c-31.18,0-56.69,25.51-56.69,56.69v170.08c0,31.18,25.51,56.69,56.69,56.69h1176.38c31.18,0,56.69,25.51,56.69,56.69v170.08c0,31.18-25.51,56.69-56.69,56.69H56.69c-31.18,0-56.69,25.51-56.69,56.69v170.08c0,31.18,25.51,56.69,56.69,56.69h1176.38c31.18,0,56.69,25.51,56.69,56.69v170.08c0,31.18-25.51,56.69-56.69,56.69H56.69c-31.18,0-56.69,25.51-56.69,56.69v170.08c0,31.18,25.51,56.69,56.69,56.69h1176.38c31.18,0,56.69,25.51,56.69,56.69v170.08c0,31.18-25.51,56.69-56.69,56.69H56.69c-31.18,0-56.69,25.51-56.69,56.69v170.08c0,31.18,25.51,56.69,56.69,56.69h1176.38c31.18,0,56.69,25.51,56.69,56.69v170.08c0,31.18-25.51,56.69-56.69,56.69H56.69c-31.18,0-56.69,25.51-56.69,56.69v170.08c0,31.18,25.51,56.69,56.69,56.69h1176.38c31.18,0,56.69,25.51,56.69,56.69v170.08c0,31.18-25.51,56.69-56.69,56.69H56.69c-31.18,0-56.69,25.51-56.69,56.69v170.08c0,31.18,25.51,56.69,56.69,56.69h1714.96Z"/>
  <rect y="283.46" width="108.09" height="283.46"/>
  <rect y="0" width="108.09" height="283.46"/>
</svg>