<?xml version="1.0" encoding="UTF-8"?>
<svg id="Layer_1" xmlns="http://www.w3.org/2000/svg" width="580.03mm" height="600mm" version="1.1" viewBox="0 0 1644.18 1700.78">
  <!-- Generator: Adobe Illustrator 30.5.1, SVG Export Plug-In . SVG Version: 2.1.4 Build 3)  -->
  <defs>
    <style>
      .st0 {
        fill: #7f7f7f;
      }
    </style>
  </defs>
  <path class="st0" d="M1587.48,1700.78c31.18,0,56.69-25.51,56.69-56.69v-170.08c0-31.18-25.51-56.69-56.69-56.69H340.16c-31.18,0-56.69-25.51-56.69-56.69v-170.08c0-31.18,25.51-56.69,56.69-56.69h1247.33c31.18,0,56.69-25.51,56.69-56.69v-170.08c0-31.18-25.51-56.69-56.69-56.69H340.16c-31.18,0-56.69-25.51-56.69-56.69v-170.08c0-31.18,25.51-56.69,56.69-56.69h1247.33c31.18,0,56.69-25.51,56.69-56.69v-170.08c0-31.18-25.51-56.69-56.69-56.69H340.16c-31.18,0-56.69-25.51-56.69-56.69V56.69c0-31.18-25.51-56.69-56.69-56.69H56.69C25.51,0,0,25.51,0,56.69v1587.39c0,31.18,25.51,56.69,56.69,56.69h1530.79Z"/>
</svg>